<?xml version="1.0" standalone="no"?>
<!DOCTYPE svg PUBLIC "-//W3C//DTD SVG 20010904//EN"
 "http://www.w3.org/TR/2001/REC-SVG-20010904/DTD/svg10.dtd">
<svg version="1.0" xmlns="http://www.w3.org/2000/svg"
 width="507.000000pt" height="507.000000pt" viewBox="0 0 507.000000 507.000000"
 preserveAspectRatio="xMidYMid meet">
<metadata>
Created by potrace 1.14, written by Peter Selinger 2001-2017
</metadata>
<g transform="translate(0.000000,507.000000) scale(0.100000,-0.100000)"
fill="#000000" stroke="none">
<path d="M2110 4782 c0 -4 -24 -8 -52 -8 -55 -1 -90 -8 -132 -24 -13 -5 -26
-7 -28 -5 -19 19 -198 22 -198 3 0 -4 -3 -7 -7 -7 -18 4 -92 -35 -86 -44 4 -6
0 -8 -9 -5 -8 4 -31 -3 -49 -15 -42 -25 -58 -28 -185 -29 -75 -1 -109 3 -134
15 -18 10 -36 17 -40 17 -20 0 -66 -61 -62 -82 1 -3 -5 -12 -13 -18 -8 -7 -15
-18 -15 -25 0 -8 -19 -20 -42 -27 -27 -9 -51 -26 -64 -46 -12 -17 -23 -30 -25
-27 -2 2 -4 -17 -3 -41 0 -24 -2 -44 -5 -44 -3 0 -7 -12 -7 -27 -4 -79 -9 -95
-39 -119 -16 -13 -38 -30 -47 -39 -10 -8 -18 -13 -18 -10 0 3 -19 -7 -42 -22
-49 -32 -99 -83 -92 -94 2 -4 1 -9 -3 -11 -5 -1 -24 -34 -43 -73 -19 -38 -39
-75 -45 -82 -31 -35 -63 -81 -87 -124 -27 -47 -27 -48 -8 -72 11 -13 16 -27
13 -31 -3 -3 -1 -6 4 -6 6 0 10 -8 8 -17 -1 -10 2 -23 7 -30 5 -7 7 -17 3 -23
-3 -5 -2 -10 3 -10 10 0 12 -9 17 -78 3 -53 -16 -112 -36 -112 -6 0 -7 -4 -4
-10 3 -5 -1 -20 -9 -32 -25 -39 -4 -183 35 -239 10 -14 40 -37 66 -50 61 -30
94 -55 86 -62 -3 -4 2 -9 11 -13 9 -3 16 -17 16 -30 0 -13 5 -24 10 -24 6 0
10 -7 10 -15 0 -8 5 -15 11 -15 5 0 8 -4 5 -8 -3 -5 16 -22 41 -38 26 -16 57
-39 69 -51 13 -13 26 -23 29 -23 3 0 21 -16 40 -36 19 -20 35 -32 35 -28 0 4
7 -1 15 -12 8 -10 15 -14 15 -9 0 6 4 5 8 -2 4 -6 14 -12 22 -13 20 -4 80 20
80 31 0 5 6 9 14 9 8 0 22 7 31 16 18 18 145 29 145 13 0 -6 5 -7 10 -4 6 3
10 2 10 -3 0 -30 195 43 228 85 7 10 12 12 12 5 0 -7 7 -12 16 -12 9 0 12 5 8
13 -6 9 -5 9 7 0 8 -7 34 -14 57 -15 23 -2 42 -6 42 -11 0 -4 3 -6 8 -5 4 2
18 -5 32 -15 13 -9 21 -17 17 -17 -5 0 1 -13 12 -29 11 -15 17 -32 13 -36 -4
-5 -2 -5 5 -1 6 3 14 3 17 -2 3 -5 40 -7 84 -4 75 4 80 3 110 -24 29 -27 31
-34 36 -114 2 -47 8 -109 12 -138 4 -30 3 -57 -2 -60 -16 -12 -55 -72 -46 -72
4 0 8 -9 9 -19 1 -11 31 -49 67 -84 53 -54 83 -97 101 -147 19 -53 37 -91 58
-123 15 -21 24 -26 40 -21 36 11 60 11 101 -3 22 -7 41 -11 44 -8 8 8 52 -49
52 -67 0 -22 -1 -18 14 -75 10 -39 10 -58 -1 -98 -24 -93 -24 -101 -3 -102 13
-1 18 2 13 10 -5 8 -2 8 9 -1 37 -30 77 34 58 93 -6 17 11 68 21 65 14 -5 54
20 116 70 7 6 17 10 23 10 5 0 10 5 10 10 0 6 7 10 15 10 8 0 15 5 15 10 0 6
8 10 18 10 13 0 14 2 4 9 -11 7 -11 9 1 14 10 4 14 0 12 -11 -2 -9 -4 -21 -4
-25 -1 -5 -5 -5 -11 -2 -6 3 -7 -1 -4 -9 4 -10 1 -16 -7 -16 -11 0 -11 -3 1
-10 11 -7 11 -10 2 -10 -7 0 -10 -5 -7 -10 3 -6 0 -13 -8 -16 -7 -2 -14 -10
-15 -17 -3 -38 -15 -82 -23 -85 -5 -2 -9 -10 -9 -18 0 -9 -4 -12 -10 -9 -6 3
-10 -4 -10 -16 0 -22 0 -22 -14 -3 -8 10 -18 16 -22 12 -4 -4 -12 -4 -19 2
-13 11 -40 -16 -40 -40 0 -8 -3 -18 -8 -21 -5 -3 0 -14 10 -24 10 -10 17 -21
16 -24 -6 -13 23 -5 37 10 17 18 52 21 62 5 5 -7 8 -7 8 0 0 5 14 9 30 8 34
-2 49 16 46 56 -1 14 5 31 14 38 11 10 11 11 1 6 -9 -5 -7 2 5 18 10 14 21 24
23 22 2 -2 9 1 16 6 10 8 37 16 67 19 10 1 1 51 -16 93 -9 21 -17 64 -18 98
-2 58 -3 60 -38 76 -34 16 -78 54 -63 54 4 0 -11 17 -35 38 -31 28 -43 45 -45
70 -1 17 -6 32 -11 32 -5 0 -3 6 3 13 6 8 8 17 3 21 -4 4 1 12 11 17 9 6 15
14 12 20 -4 5 1 9 10 9 9 0 13 5 10 10 -3 6 -2 10 3 10 5 0 13 15 17 33 4 17
9 39 12 47 8 31 14 77 17 145 1 39 6 77 9 85 8 20 17 74 22 133 2 27 9 55 15
62 18 22 16 113 -2 131 -12 12 -17 13 -23 3 -6 -8 -4 -10 6 -5 8 5 8 2 -2 -6
-9 -7 -17 -29 -18 -48 -3 -58 -9 -115 -11 -117 -2 -2 -4 -7 -5 -13 -1 -5 -3
-11 -5 -12 -4 -6 -10 -44 -16 -93 -3 -27 -8 -51 -12 -52 -4 -2 -6 -37 -6 -78
1 -47 -2 -75 -9 -75 -6 0 -7 -3 -4 -6 3 -4 2 -15 -3 -25 -7 -12 -6 -19 3 -22
9 -4 9 -6 0 -6 -7 -1 -10 -8 -7 -16 5 -11 2 -13 -10 -9 -8 3 -15 9 -14 12 1 4
-3 16 -9 27 -6 11 -9 32 -7 48 1 15 -1 27 -5 27 -4 0 -8 7 -8 15 0 8 3 12 7
10 7 -4 9 27 13 172 1 56 5 105 9 108 4 4 3 18 -2 31 -5 13 -6 24 -1 24 4 0 7
10 6 23 -2 13 5 39 15 59 10 20 15 39 12 42 -2 3 0 11 5 18 5 7 11 33 12 58 6
107 8 136 15 155 8 25 62 62 101 69 77 14 105 43 98 101 -2 17 -5 61 -7 100
-4 63 -2 72 20 94 13 13 27 21 30 18 4 -4 15 0 26 7 17 12 24 12 49 -2 49 -29
70 -124 42 -189 -17 -40 -19 -44 -27 -82 -5 -22 20 -70 37 -71 19 0 105 -47
131 -71 23 -21 28 -34 26 -65 -1 -22 -2 -56 -3 -76 -1 -21 -5 -38 -9 -38 -9 0
14 -62 30 -78 11 -13 16 -27 13 -44 0 -5 6 -8 14 -8 8 0 15 -6 15 -14 0 -7 10
-21 23 -29 61 -42 157 -145 171 -185 9 -23 15 -43 15 -45 -1 -3 36 -82 41 -87
3 -3 16 -25 29 -50 13 -25 30 -52 38 -61 7 -9 10 -19 6 -22 -3 -4 0 -7 7 -7 7
0 10 -3 7 -6 -3 -4 -2 -15 4 -26 6 -11 13 -29 15 -41 3 -12 7 -29 9 -37 2 -8
4 -18 4 -22 1 -3 10 -4 21 -1 10 3 19 8 18 12 -3 11 25 61 34 61 5 0 7 4 3 9
-3 5 4 12 15 16 11 3 20 9 20 13 0 4 15 22 32 41 18 19 33 40 34 47 2 12 40
50 145 144 144 129 211 199 204 211 -5 7 -4 10 2 6 6 -4 16 8 23 26 7 17 16
41 22 52 5 12 11 30 13 40 2 11 4 20 5 20 2 0 7 20 15 60 3 16 11 35 17 42 6
7 8 13 4 13 -3 0 1 17 10 38 32 73 23 104 -29 94 -18 -3 -44 -6 -59 -6 -16 -1
-28 -3 -28 -6 0 -3 -22 -14 -50 -25 -27 -11 -50 -23 -50 -28 0 -4 -5 -5 -10
-2 -6 4 -16 3 -23 -3 -7 -5 -25 -8 -40 -7 -15 1 -30 -2 -33 -7 -3 -4 -11 -5
-17 -1 -7 4 -14 8 -17 8 -42 6 -64 35 -76 100 -3 16 -9 34 -15 41 -5 6 -6 14
-2 17 3 4 0 7 -7 7 -7 0 -11 3 -7 6 3 3 -3 15 -13 27 -10 12 -28 33 -39 46
-12 13 -21 21 -21 16 0 -4 -6 -3 -12 2 -7 5 -23 8 -35 7 -24 -1 -83 55 -83 79
0 7 -4 17 -9 23 -6 5 -11 28 -12 52 -2 23 -7 42 -12 42 -4 0 -6 3 -4 8 9 14
-12 52 -26 46 -8 -3 -24 3 -36 13 -17 15 -22 31 -25 88 -4 84 -12 105 -35 100
-46 -9 -101 -29 -101 -37 0 -5 -4 -7 -9 -4 -4 3 -26 -3 -47 -13 -21 -11 -42
-17 -46 -14 -5 2 -8 -1 -8 -7 0 -6 -4 -9 -9 -5 -5 3 -12 1 -15 -4 -3 -5 -18
-12 -33 -16 -16 -3 -41 -12 -58 -20 -37 -16 -69 -27 -74 -25 -2 1 -7 -3 -10
-9 -4 -6 -16 -12 -26 -14 -64 -13 -85 -21 -85 -29 0 -5 -4 -7 -9 -4 -10 6
-144 -62 -149 -75 -2 -5 -8 -7 -12 -4 -5 3 -44 -11 -87 -32 -43 -20 -84 -38
-91 -39 -7 -1 -57 -24 -110 -50 -109 -54 -99 -49 -129 -59 -13 -4 -23 -12 -23
-18 0 -6 -3 -7 -6 -4 -4 4 -19 -2 -33 -12 -14 -10 -28 -19 -31 -18 -7 0 -164
-75 -170 -82 -3 -3 -14 -8 -25 -9 -11 -2 -21 -8 -23 -13 -2 -5 -10 -9 -18 -9
-8 0 -14 -5 -14 -12 0 -6 -3 -9 -6 -5 -3 3 -29 -8 -57 -24 -29 -16 -71 -39
-94 -50 -24 -12 -43 -25 -43 -31 0 -5 -4 -7 -9 -4 -5 3 -25 -5 -44 -18 -19
-13 -38 -22 -41 -18 -3 3 -6 0 -6 -6 0 -7 -7 -12 -15 -12 -8 0 -15 -4 -15 -10
0 -5 -7 -10 -15 -10 -8 0 -15 -4 -15 -10 0 -5 -7 -10 -15 -10 -8 0 -15 -4 -15
-10 0 -5 -7 -7 -15 -4 -8 4 -15 1 -15 -5 0 -6 -9 -11 -19 -11 -11 0 -23 -5
-26 -10 -4 -6 -10 -8 -15 -5 -13 8 0 35 16 35 8 0 13 3 13 8 -3 19 2 33 11 27
6 -3 10 0 10 7 1 12 145 106 164 106 5 0 13 7 18 16 5 9 13 16 18 16 6 0 19 8
30 18 11 9 23 15 27 14 3 -2 9 0 12 5 3 4 31 21 61 37 30 16 74 42 97 58 23
15 47 28 53 28 6 0 13 7 16 15 4 8 10 13 14 10 5 -3 11 -1 15 5 4 6 11 8 16 5
5 -4 9 -1 9 5 0 6 5 8 10 5 6 -3 10 -1 10 4 0 6 8 11 18 11 9 0 28 9 42 20 14
11 30 20 37 20 6 0 18 6 25 14 15 15 222 116 238 116 6 0 10 4 10 10 0 5 3 9
8 8 4 -1 43 15 87 37 44 21 83 38 88 37 4 -1 7 3 7 8 0 6 4 10 9 10 5 0 26 8
47 17 22 9 42 16 47 15 4 -1 7 3 7 9 0 5 4 8 9 4 5 -3 12 -1 16 5 4 6 11 8 16
5 5 -4 9 -1 9 4 0 6 6 11 14 11 7 0 31 8 52 17 22 9 41 17 44 18 3 0 27 11 54
23 27 12 54 22 60 22 7 0 17 5 24 12 7 7 12 8 12 3 0 -6 3 -6 8 0 4 6 86 37
182 69 100 34 183 68 195 80 21 21 21 22 4 53 -10 18 -20 45 -23 60 -2 15 -5
28 -6 28 -8 0 -13 54 -6 80 2 11 5 23 5 27 1 5 4 7 9 6 15 -6 49 28 47 47 -7
72 -43 165 -64 165 -9 0 -22 5 -29 12 -7 7 -12 9 -12 5 0 -4 -15 -1 -32 6 -32
13 -70 14 -113 3 -66 -17 -93 -22 -115 -20 -71 6 -136 17 -140 25 -3 4 -12 4
-19 -1 -23 -14 -110 19 -150 57 -13 13 -27 20 -32 18 -4 -3 -10 -1 -14 5 -5 7
-50 8 -50 0 0 -1 -8 -3 -18 -5 -11 -2 -20 -5 -21 -7 -1 -2 -19 -24 -39 -49
-20 -25 -34 -49 -30 -52 3 -4 1 -7 -5 -7 -7 0 -12 -6 -12 -13 0 -9 -10 -13
-27 -12 -35 2 -103 24 -103 34 0 3 -11 8 -25 9 -14 1 -39 9 -55 17 -17 9 -30
13 -30 9 0 -3 -14 10 -32 30 -32 36 -63 48 -138 52 -19 1 -40 2 -45 3 -20 2
-115 68 -108 74 3 4 -3 7 -15 7 -29 0 -30 42 -3 67 22 20 35 70 20 78 -5 4 -9
15 -9 26 0 10 -5 19 -11 19 -5 0 -8 4 -5 9 3 4 -6 13 -19 19 -14 7 -25 8 -25
4z m-169 -562 c6 0 8 -3 6 -7 -3 -5 0 -19 6 -33 14 -35 17 -49 19 -97 2 -31 6
-43 18 -44 10 0 11 -2 2 -6 -6 -2 -10 -8 -7 -13 7 -11 -31 -23 -45 -15 -5 3
-8 20 -6 36 2 19 -1 33 -10 36 -8 3 -11 9 -8 14 3 5 1 9 -3 9 -10 0 -9 74 3
128 6 29 9 32 12 15 2 -13 8 -23 13 -23z m193 -57 c-2 -7 -7 -21 -10 -30 -4
-10 -8 -25 -10 -33 -7 -39 -10 -50 -16 -55 -10 -11 -48 -14 -53 -4 -4 5 -2 9
4 9 5 0 8 8 6 18 -1 9 1 22 6 28 5 6 10 20 12 32 2 12 12 29 23 38 10 8 12 12
4 8 -10 -5 -8 1 5 15 18 21 20 21 26 4 3 -10 5 -24 3 -30z m-353 -63 c6 0 8
-4 4 -9 -3 -5 2 -16 10 -24 22 -22 19 -47 -6 -47 -13 0 -18 4 -13 12 5 8 2 9
-9 5 -11 -4 -17 -1 -17 8 0 8 -5 15 -11 15 -5 0 -7 5 -4 10 3 6 2 10 -4 10 -8
0 -9 33 -2 59 0 3 10 -5 21 -17 12 -12 25 -22 31 -22z m559 1 c-5 -10 -6 -21
-3 -25 3 -3 -1 -6 -10 -6 -9 0 -17 -5 -17 -10 0 -6 -10 -21 -22 -33 -13 -13
-24 -26 -25 -30 -2 -4 -6 -7 -9 -6 -4 0 -15 -13 -25 -30 -10 -17 -25 -31 -33
-31 -8 0 -22 -7 -30 -16 -9 -8 -16 -12 -17 -7 0 4 -3 20 -5 35 -3 15 1 32 8
38 50 41 66 59 61 64 -4 3 -2 6 4 6 6 0 27 16 48 36 21 19 44 33 51 30 8 -3
14 -1 14 5 0 6 5 7 10 4 7 -4 7 -12 0 -24z m-270 -82 c0 -4 -9 -7 -19 -6 -11
0 -18 4 -16 7 6 9 35 8 35 -1z m-186 -11 c-5 -10 -4 -10 6 -1 9 8 19 9 32 2
25 -14 23 -29 -6 -29 -23 0 -51 -22 -41 -32 3 -2 -2 -5 -10 -6 -8 -1 -22 -3
-30 -4 -8 -1 -12 -5 -9 -9 2 -4 -4 -10 -14 -13 -19 -6 -46 -49 -47 -74 0 -7
-6 -16 -13 -21 -7 -4 -14 -18 -15 -29 -1 -12 -6 -22 -12 -22 -5 0 -3 -5 5 -10
8 -5 10 -10 4 -10 -6 0 -10 -14 -9 -32 1 -18 -2 -41 -7 -50 -5 -11 -5 -18 2
-18 5 0 10 -9 10 -21 0 -11 5 -17 10 -14 6 3 10 -4 10 -17 0 -23 15 -41 73
-84 22 -18 38 -21 80 -17 77 7 79 7 113 25 17 10 35 14 39 10 5 -4 5 -1 1 6
-4 7 -2 12 7 12 18 0 49 34 40 44 -5 4 -1 6 7 4 9 -2 15 4 15 14 0 9 9 26 19
37 11 12 16 21 12 21 -4 0 -2 10 5 21 8 16 8 20 -1 14 -9 -6 -9 -2 -1 14 7 11
8 21 3 21 -5 0 -8 12 -7 28 2 34 -25 91 -44 92 -8 0 -11 3 -8 7 4 3 -3 11 -16
18 -12 6 -21 16 -20 22 1 5 -3 10 -10 11 -61 5 -98 10 -102 14 -3 2 1 5 8 5
92 6 110 5 117 -6 4 -7 10 -12 14 -12 33 5 46 -2 52 -24 3 -14 10 -23 14 -20
5 3 11 -3 14 -13 4 -10 17 -19 33 -20 14 -1 24 1 20 4 -14 14 28 37 74 40 56
3 67 -6 39 -31 -11 -10 -20 -14 -20 -9 0 5 -4 3 -9 -5 -5 -8 -27 -15 -53 -15
-39 -1 -44 -4 -44 -23 0 -13 4 -23 9 -23 5 0 6 -7 3 -15 -3 -9 1 -18 10 -22
11 -4 12 -8 4 -13 -6 -4 36 -7 93 -7 58 -1 110 -4 116 -7 15 -10 14 -27 -1
-24 -7 2 -12 -2 -11 -8 1 -5 -12 -9 -28 -8 -16 1 -29 -1 -29 -5 0 -10 -62 -7
-79 3 -10 7 -12 5 -6 -5 4 -8 -7 0 -26 16 -19 17 -31 26 -27 21 4 -5 2 -18 -4
-30 -7 -11 -12 -24 -13 -28 0 -3 -3 -9 -7 -13 -3 -4 -4 -22 -2 -42 3 -22 1
-32 -6 -28 -5 3 -10 1 -10 -5 0 -6 -4 -8 -10 -5 -5 3 -10 1 -10 -5 0 -6 -4 -8
-10 -5 -6 3 -7 -1 -4 -9 3 -9 1 -16 -4 -16 -6 0 -18 -8 -28 -17 -10 -10 -22
-18 -27 -18 -6 0 -12 -6 -14 -12 -3 -7 0 -13 5 -13 6 0 15 -14 21 -30 8 -24 7
-29 -2 -23 -7 4 -5 -4 4 -18 13 -19 14 -30 7 -43 -8 -14 -7 -17 1 -12 16 10
14 -3 -4 -20 -14 -15 -20 -8 -16 19 0 4 -3 7 -9 7 -5 0 -10 7 -10 15 0 9 -7
18 -16 22 -8 3 -13 12 -10 19 3 7 1 16 -5 19 -11 8 -8 37 6 48 6 5 4 7 -5 4
-8 -2 -14 -10 -12 -17 2 -10 0 -11 -10 -3 -15 12 -78 5 -78 -8 0 -5 -7 -6 -17
-2 -13 5 -15 2 -11 -15 3 -11 2 -22 -4 -24 -5 -2 -10 -10 -12 -18 -1 -8 -8
-25 -15 -38 -7 -13 -14 -33 -16 -44 -3 -12 -10 -25 -16 -28 -6 -4 -10 -10 -9
-14 1 -4 -3 -20 -9 -36 -5 -17 -9 -31 -8 -33 6 -7 -29 -33 -45 -33 -21 0 -22
5 -6 43 6 15 11 31 10 36 -1 4 3 7 9 7 5 0 7 4 4 10 -3 5 -1 19 5 31 11 20 22
61 23 87 0 6 4 12 9 12 5 0 7 4 3 9 -3 6 3 14 12 20 17 10 17 10 -2 11 -14 0
-16 3 -7 9 11 6 11 10 0 18 -17 12 -88 17 -88 5 0 -5 -11 -15 -25 -22 -13 -7
-22 -17 -19 -22 3 -4 1 -8 -4 -8 -10 0 -92 -78 -92 -88 0 -4 -9 -13 -20 -19
-22 -14 -50 -7 -50 12 0 14 55 93 82 116 10 9 18 19 18 23 0 4 16 23 36 42 20
19 31 34 25 34 -7 0 -10 4 -7 8 3 5 -1 18 -10 30 -15 21 -55 23 -62 2 -2 -6
-7 -8 -12 -5 -4 3 -24 -2 -44 -10 -20 -8 -37 -14 -39 -13 -2 2 -10 -2 -18 -8
-8 -6 -22 -10 -31 -9 -10 2 -18 -1 -18 -6 0 -4 -7 -6 -15 -3 -9 4 -13 15 -11
27 3 12 5 26 5 30 1 5 6 5 11 2 6 -3 13 1 16 9 3 9 12 16 20 16 8 0 14 5 14
11 0 5 4 8 9 5 5 -3 14 1 21 9 7 8 16 13 20 10 5 -3 11 -1 15 5 4 6 11 8 16 5
5 -4 9 -1 9 5 0 7 7 10 15 7 8 -4 17 -2 20 3 3 5 11 7 18 4 8 -3 12 11 12 46
0 37 -3 49 -13 45 -7 -3 -10 0 -7 5 7 12 -8 14 -19 3 -12 -12 -119 -12 -133
-1 -7 6 -13 7 -13 3 0 -5 -10 0 -22 11 -12 10 -18 13 -13 5 5 -9 4 -12 -2 -8
-13 8 -24 47 -14 47 4 0 12 -5 19 -12 9 -9 12 -9 12 1 0 7 5 9 10 6 13 -8 97
-11 105 -4 12 13 63 -4 68 -22 7 -28 22 -23 24 8 0 15 6 29 12 31 5 2 7 10 4
19 -4 10 -2 14 4 10 8 -5 11 21 4 42 0 2 -10 -4 -21 -14 -12 -11 -20 -13 -20
-6 0 7 -4 10 -9 6 -5 -3 -12 -1 -16 5 -4 6 -12 7 -18 4 -7 -4 -9 -4 -5 0 3 4
-8 21 -24 37 -17 16 -27 29 -22 29 5 0 1 5 -9 11 -16 10 -16 11 0 27 12 12 18
13 21 4 2 -7 7 -10 12 -7 4 3 13 -2 20 -10 7 -8 17 -15 22 -15 16 0 67 -43 62
-52 -3 -4 2 -8 11 -8 9 0 14 4 11 8 -3 5 5 8 17 7 12 -1 29 6 38 16 9 10 20
15 24 11 5 -4 5 -2 1 5 -4 7 11 24 36 42 46 32 63 39 52 19z m23 -109 c1 -12
-1 -19 -4 -15 -3 3 -11 1 -18 -4 -8 -7 -12 -5 -12 5 0 8 4 12 8 10 4 -3 9 2
13 10 8 21 11 19 13 -6z m-46 -36 c13 -16 12 -17 -3 -4 -10 7 -18 15 -18 17 0
8 8 3 21 -13z m140 -12 c15 7 21 6 25 -5 3 -8 15 -18 27 -22 39 -12 48 -31 52
-99 4 -74 -37 -138 -90 -143 -16 -1 -32 -8 -37 -15 -6 -9 -12 -9 -28 1 -11 7
-25 10 -29 7 -5 -3 -12 2 -15 11 -5 14 -9 14 -24 3 -9 -7 -14 -9 -10 -5 5 5
-7 23 -25 39 -17 17 -25 26 -17 22 12 -7 13 -6 3 7 -7 8 -10 18 -6 21 3 4 2 7
-4 7 -6 0 -9 9 -6 20 3 11 10 20 15 20 5 0 6 -9 3 -20 -5 -14 -2 -20 10 -20 9
0 13 -4 10 -10 -5 -9 1 -12 21 -9 4 0 10 -5 14 -11 4 -7 22 -13 39 -14 17 0
31 -5 31 -10 0 -4 6 -3 13 3 8 6 17 8 20 4 4 -3 7 -2 7 4 0 5 10 15 23 20 18
8 23 18 21 41 -1 17 -5 36 -9 43 -6 8 -4 10 5 4 10 -6 11 -4 4 6 -4 8 -9 24
-10 37 -1 29 -9 36 -31 27 -37 -16 -53 -12 -53 11 0 22 22 39 28 23 2 -5 12
-4 23 2z m-159 -40 c-17 -11 -18 -12 -4 -37 9 -17 9 -24 -2 -33 -7 -6 -16 -8
-19 -4 -4 3 -7 1 -7 -6 0 -7 -5 -9 -11 -6 -6 5 -4 12 8 20 10 7 22 11 27 8 5
-4 6 -1 2 5 -5 8 -13 9 -24 3 -14 -7 -18 -5 -18 9 0 10 6 16 13 13 8 -3 11 2
9 14 -3 13 2 19 17 21 15 1 18 -1 9 -7z m481 -270 c10 -9 15 -24 12 -33 -5
-13 -16 -15 -60 -9 -5 0 -22 11 -36 24 -19 16 -23 25 -15 33 15 16 77 7 99
-15z"/>
<path d="M3244 2728 c2 -21 -1 -41 -6 -44 -5 -3 -5 -10 -2 -16 4 -6 8 -35 10
-64 1 -29 5 -58 9 -65 5 -6 9 -48 11 -92 2 -45 8 -85 15 -91 9 -8 10 -7 4 4
-6 12 -5 13 5 3 11 -10 18 -5 39 30 14 23 35 53 48 67 13 14 23 31 23 38 0 7
3 11 8 9 8 -6 26 13 30 33 2 8 9 18 15 22 8 6 4 14 -13 28 -14 11 -29 20 -33
20 -15 0 -66 43 -61 52 3 4 0 8 -5 8 -6 0 -11 6 -11 13 0 17 -56 80 -74 83
-10 1 -13 -9 -12 -38z"/>
<path d="M3745 1912 c-5 -4 -11 -18 -13 -31 -2 -13 -12 -38 -22 -56 -10 -18
-16 -36 -13 -39 4 -3 -1 -6 -10 -6 -9 0 -17 -7 -17 -15 0 -8 -4 -15 -10 -15
-5 0 -10 -6 -10 -14 0 -8 -11 -28 -25 -44 -14 -17 -25 -34 -25 -40 0 -5 -6
-12 -14 -15 -21 -8 -27 -47 -8 -53 9 -3 25 -10 35 -15 11 -6 17 -6 17 2 0 6 7
9 15 5 8 -3 15 0 15 6 0 6 3 8 7 5 3 -4 11 -2 18 3 8 7 18 3 33 -10 14 -14 22
-16 25 -7 3 7 6 4 6 -6 1 -10 6 -15 11 -12 6 3 10 1 10 -6 0 -16 13 -3 16 16
1 8 -4 15 -11 15 -15 0 -59 56 -70 90 -12 36 -13 60 -3 60 5 0 6 5 3 10 -3 6
-1 10 4 10 6 0 11 7 11 16 0 8 5 12 10 9 6 -3 10 -2 10 4 0 12 29 8 38 -5 4
-5 16 -10 27 -9 31 0 31 39 1 59 -16 10 -26 26 -26 40 0 46 -13 64 -35 48z"/>
<path d="M3141 1831 c-7 -5 -11 -13 -7 -19 3 -6 1 -12 -5 -14 -6 -2 -13 -24
-16 -50 -6 -48 3 -61 42 -63 31 -2 55 -16 55 -32 0 -9 6 -13 14 -10 19 7 28
-17 13 -33 -9 -10 -9 -11 3 -5 12 7 13 6 2 -7 -12 -14 -50 -17 -70 -4 -12 7
-55 -35 -58 -58 -1 -9 3 -19 9 -23 17 -11 60 -15 54 -6 -3 4 10 8 29 8 19 0
34 -3 34 -7 0 -15 40 -2 60 20 12 12 16 22 11 22 -6 0 -8 7 -5 15 4 8 1 15 -6
15 -6 0 -9 4 -5 9 3 5 -2 16 -10 24 -8 9 -15 21 -15 27 0 6 -4 8 -10 5 -5 -3
-10 3 -10 14 0 12 -4 21 -9 21 -5 0 -12 11 -15 25 -4 14 -11 25 -17 25 -6 0
-7 5 -4 10 3 6 1 10 -5 10 -6 0 -9 4 -6 8 3 5 -5 25 -17 45 -16 26 -26 34 -36
28z"/>
<path d="M2390 1698 c0 -5 -4 -7 -9 -4 -17 11 -34 -26 -36 -77 -2 -57 11 -95
26 -80 14 14 60 4 52 -11 -4 -8 -2 -7 7 1 7 6 18 9 25 7 7 -3 15 3 17 14 3 12
0 19 -9 19 -8 0 -12 -6 -9 -12 2 -6 -2 -12 -10 -12 -9 0 -13 6 -10 14 3 8 -4
18 -17 23 -12 5 -16 9 -9 9 7 1 10 6 7 11 -4 6 -3 10 2 9 18 -3 36 1 30 7 -3
4 -2 14 3 24 6 11 4 24 -5 37 -15 22 -55 37 -55 21z m40 -132 c0 -3 -4 -8 -10
-11 -5 -3 -10 -1 -10 4 0 6 5 11 10 11 6 0 10 -2 10 -4z"/>
<path d="M4325 1632 c-6 -4 -19 -25 -30 -46 -22 -43 -56 -82 -67 -78 -5 1 -8
-3 -8 -8 0 -6 -32 -26 -70 -45 -39 -18 -71 -37 -71 -42 -1 -4 -5 -7 -10 -6
-14 4 -22 -65 -11 -97 6 -16 7 -32 2 -35 -5 -3 -7 -14 -5 -25 2 -11 0 -20 -6
-20 -5 0 -9 -6 -9 -14 0 -8 -5 -16 -10 -18 -6 -2 -13 -16 -16 -32 -3 -16 -9
-37 -14 -46 -10 -19 -7 -65 8 -100 5 -14 20 -49 31 -79 33 -83 49 -99 96 -95
56 4 65 6 65 15 0 4 13 22 29 40 17 18 30 35 29 38 0 3 1 9 2 14 3 9 4 15 13
60 5 20 12 37 18 37 6 0 8 4 5 8 -3 5 6 40 19 77 14 37 25 76 25 86 0 11 4 19
8 19 10 0 11 6 14 72 2 27 5 48 8 48 3 0 6 26 7 58 0 31 4 68 8 82 4 14 6 36
5 50 -1 14 -2 31 -3 38 0 6 -4 12 -8 12 -3 0 -9 9 -12 20 -5 20 -24 26 -42 12z"/>
<path d="M2955 1529 c-10 -15 1 -23 20 -15 9 3 13 10 10 16 -8 13 -22 13 -30
-1z"/>
<path d="M2375 1293 c-11 -3 -22 -9 -25 -13 -3 -5 -25 -11 -50 -15 -25 -4 -50
-8 -56 -9 -6 -1 -22 -9 -35 -18 -21 -14 -22 -17 -9 -34 9 -11 10 -15 2 -10
-14 9 10 -36 56 -104 17 -25 32 -52 34 -60 2 -8 6 -17 9 -20 15 -14 49 -104
54 -142 5 -43 73 -187 126 -266 16 -24 29 -50 29 -58 0 -7 5 -14 10 -14 6 0
10 -9 10 -19 0 -11 5 -23 10 -26 6 -4 8 -11 5 -16 -4 -5 -1 -9 5 -9 6 0 8 -5
4 -12 -9 -14 -6 -87 4 -103 4 -5 7 -16 8 -22 2 -14 34 -49 34 -37 0 3 7 1 15
-6 8 -7 15 -9 15 -4 0 5 10 9 23 10 34 1 73 11 99 25 22 12 189 16 208 4 5 -3
11 1 13 7 4 9 6 9 6 2 1 -11 16 -10 80 7 20 6 49 33 44 41 -2 5 0 8 5 8 5 0
15 14 22 30 7 17 32 47 56 68 24 20 47 45 50 55 3 9 9 15 14 12 4 -2 13 9 20
25 7 17 15 28 18 26 5 -6 39 47 48 77 4 9 11 17 17 17 6 0 8 3 5 6 -4 3 0 21
8 40 8 19 14 36 14 39 0 3 0 6 1 8 1 4 8 32 13 55 4 20 79 102 93 102 13 0 43
45 39 57 -3 7 -1 15 4 18 6 3 6 15 0 29 -5 13 -6 26 -3 29 3 3 -4 19 -15 35
-25 35 -25 86 0 108 19 18 26 60 8 49 -5 -3 -10 -2 -10 3 0 5 -20 9 -45 8 -25
0 -45 -5 -45 -10 0 -5 -3 -6 -6 -3 -4 3 -27 -6 -52 -20 -39 -23 -57 -27 -126
-27 -79 0 -166 24 -166 47 0 4 -4 5 -10 2 -5 -3 -10 -2 -10 3 0 23 -40 18 -68
-8 -17 -15 -33 -26 -36 -23 -3 3 -13 2 -23 -2 -28 -12 -46 -16 -80 -17 -18 -1
-30 -5 -27 -9 7 -11 -58 11 -76 26 -8 7 -21 10 -27 8 -7 -3 -13 -1 -13 4 0 4
-19 8 -43 9 -94 2 -143 8 -164 22 -12 7 -27 11 -33 7 -5 -3 -10 -2 -10 2 0 10
-45 13 -75 6z"/>
</g>
</svg>
